<svg xmlns="http://www.w3.org/2000/svg" viewBox="0 0 252.49 84.86"><defs><style>.cls-1,.cls-2{fill:#3c3c3b;}.cls-2{font-size:30px;font-family:CreatoDisplay-Black, Creato Display;font-weight:800;}.cls-3{letter-spacing:-0.02em;}.cls-4{letter-spacing:0em;}</style></defs><g id="Layer_2" data-name="Layer 2"><g id="Layer_1-2" data-name="Layer 1"><path class="cls-1" d="M26,79,0,79V25.65A21.44,21.44,0,0,1,21.45,4.21l62.1,0,0,21.44-62.09,0V56.23a.61.61,0,0,0,1,.47L49.9,33.5a10.73,10.73,0,0,1,7.74-3.31h26V79H62.18V53.26a.64.64,0,0,0-1.1-.44L33.76,75.68A10.77,10.77,0,0,1,26,79Z"/><text class="cls-2" transform="translate(93.19 25.68)">LEO <tspan x="0" y="26.5">GOUCHON</tspan><tspan class="cls-3"><tspan x="0" y="53">S</tspan><tspan class="cls-4" x="19.56" y="53">TUDIO</tspan></tspan></text></g></g></svg>